<?xml version="1.0" encoding="utf-8"?>
<!-- Generator: Adobe Illustrator 21.0.0, SVG Export Plug-In . SVG Version: 6.00 Build 0)  -->
<svg version="1.1" id="Isolation_Mode" xmlns="http://www.w3.org/2000/svg" xmlns:xlink="http://www.w3.org/1999/xlink" x="0px"
	 y="0px" viewBox="0 0 300 300" style="enable-background:new 0 0 300 300;" xml:space="preserve">
<style type="text/css">
	.st0{fill-rule:evenodd;clip-rule:evenodd;fill:#0076BF;}
	.st1{fill:#FFFFFF;}
</style>
<path class="st0" d="M0,150C0,67.2,67.2,0,150,0s150,67.2,150,150c0,82.8-67.2,150-150,150S0,232.9,0,150"/>
<path class="st1" d="M112.9,90.6c5.7,0,10.8,0.5,15.5,1.5c4.7,1,8.6,2.6,12,4.9c3.3,2.3,5.9,5.3,7.7,9.1c1.8,3.8,2.7,8.4,2.7,14
	c0,6-1.4,11-4.1,15c-2.7,4-6.7,7.3-12.1,9.8c7.3,2.1,12.8,5.8,16.4,11.1c3.6,5.3,5.4,11.6,5.4,19.1c0,6-1.2,11.2-3.5,15.5
	c-2.3,4.4-5.5,8-9.4,10.7c-3.9,2.8-8.4,4.8-13.5,6.2c-5,1.3-10.2,2-15.6,2H57V90.6H112.9z M109.6,138.7c4.7,0,8.5-1.1,11.5-3.3
	c3-2.2,4.5-5.8,4.5-10.8c0-2.8-0.5-5-1.5-6.8c-1-1.8-2.3-3.2-4-4.2c-1.7-1-3.6-1.7-5.7-2.1c-2.2-0.4-4.4-0.6-6.7-0.6H83.1v27.8
	H109.6z M111.1,189.1c2.5,0,5-0.2,7.3-0.8c2.3-0.5,4.4-1.3,6.2-2.5c1.8-1.2,3.2-2.7,4.2-4.7c1.1-2,1.6-4.5,1.6-7.6
	c0-6.1-1.7-10.5-5.2-13.1c-3.4-2.6-8-3.9-13.6-3.9H83.1v32.6H111.1z"/>
<polygon class="st1" points="200.2,90.6 200.2,187.4 258.1,187.4 258.1,209.4 174.1,209.4 174.1,90.6 "/>
</svg>
