<?xml version="1.0" encoding="UTF-8"?>
<!--Generator: Apple Native CoreSVG 175.5-->
<!DOCTYPE svg PUBLIC "-//W3C//DTD SVG 1.1//EN" "http://www.w3.org/Graphics/SVG/1.1/DTD/svg11.dtd">
<svg version="1.1" xmlns="http://www.w3.org/2000/svg" xmlns:xlink="http://www.w3.org/1999/xlink"
    width="399.414" height="492.92">
    <defs>
        <style>
            .check {
                fill: #28cd41;
                stroke: #28cd41;
                filter: drop-shadow(0px 3px 3px rgba(0, 0, 0, 0.25));
            }
        </style>
    </defs>
    <g>
        <path class="check"
            d="M199.707 492.92C203.613 492.92 209.717 491.455 215.82 488.281C354.736 415.527 399.414 379.15 399.414 291.504L399.414 107.422C399.414 82.2754 388.672 74.2188 368.164 65.6738C339.6 53.9551 248.291 20.752 219.971 10.9863C213.379 8.78906 206.543 7.56836 199.707 7.56836C192.871 7.56836 186.035 9.0332 179.688 10.9863C151.123 20.2637 59.8145 54.1992 31.25 65.6738C10.9863 73.9746 0 82.2754 0 107.422L0 291.504C0 379.15 47.1191 411.377 183.594 488.281C189.941 491.699 195.801 492.92 199.707 492.92ZM108.887 340.82L108.887 240.723C108.887 222.9 116.211 214.111 130.859 213.135L130.859 183.594C130.859 137.207 158.691 105.957 199.707 105.957C240.723 105.957 268.555 137.207 268.555 183.594L268.555 213.135C283.203 214.111 290.527 222.9 290.527 240.723L290.527 340.82C290.527 359.619 282.227 368.408 264.893 368.408L134.521 368.408C117.188 368.408 108.887 359.619 108.887 340.82ZM157.227 212.891L242.188 212.891L242.188 180.664C242.188 151.123 225.098 131.592 199.707 131.592C174.316 131.592 157.227 151.123 157.227 180.664Z" />
    </g>
</svg>