<?xml version="1.0" encoding="UTF-8"?>
<svg id="Layer_2" data-name="Layer 2" xmlns="http://www.w3.org/2000/svg" viewBox="0 0 549.8 542.05">
  <defs>
    <style>
      .cls-1 {
        fill: #ff3b30;
      }
    </style>
  </defs>
  <g id="Layer_1-2" data-name="Layer 1">
    <path d="m274.9,508.73c6.35,0,12.45-.49,19.04-.98l13.92,26.61c2.93,5.61,8.06,8.3,14.89,7.57,6.1-1.22,10.25-5.86,11.23-12.21l4.15-29.54c12.21-3.42,24.17-8.06,35.64-12.94l21.97,19.77c4.64,4.39,10.5,5.13,16.6,1.95,5.37-3.17,7.57-8.79,6.35-15.38l-6.1-29.05c10.25-7.08,20.26-15.14,29.3-24.17l27.1,11.23c6.1,2.93,11.96,1.22,16.6-4.15,4.15-4.64,4.64-10.74.98-16.36l-15.87-25.39c7.32-10.01,13.18-21.24,18.8-32.96l30.03,1.46c6.35.49,11.47-3.17,13.67-9.03,1.95-6.1.24-11.96-4.88-15.87l-23.44-18.55c3.17-11.96,5.61-24.41,6.84-37.6l28.08-9.03c6.35-2.2,10.01-6.59,10.01-13.18s-3.66-11.23-10.01-13.43l-28.08-8.79c-2.69-23.68-7.57-44.43-16.6-65.67-10.74,7.32-22.71,12.45-35.64,15.62,8.79,22.46,13.67,46.88,13.67,72.51,0,111.33-86.43,200.68-198.24,200.68s-198.24-89.36-198.24-200.68,86.43-200.93,198.24-200.93c12.94,0,25.63,1.46,37.6,3.91.98-12.7,3.91-24.66,8.79-36.13-23.68-4.88-47.61-5.62-65.43-3.91l-14.16-26.61c-2.68-5.37-8.06-8.3-14.65-7.32-6.1.98-10.5,5.86-11.23,12.21l-4.39,29.3c-12.21,3.66-23.93,7.57-35.64,12.94l-21.97-19.53c-4.88-4.39-10.5-5.13-16.6-1.95-5.37,2.93-7.81,8.54-6.35,15.38l6.1,28.81c-10.01,7.08-20.26,15.38-29.3,24.17l-27.1-10.99c-6.1-2.69-11.72-1.22-16.36,4.15-4.15,4.64-4.64,10.74-1.22,15.87l15.87,25.39c-7.08,10.5-13.18,21.24-18.8,32.96l-29.79-.98c-6.35-.49-11.72,3.17-13.92,9.03-1.95,6.1-.24,11.96,4.88,15.62l23.44,18.55c-3.17,12.21-5.62,24.41-6.35,37.35l-28.56,9.03c-6.35,2.2-9.77,6.84-9.77,13.43s3.42,11.23,9.77,13.18l28.56,9.03c.73,13.18,3.17,25.64,6.35,37.6l-23.44,18.55c-4.88,3.66-6.59,9.52-4.88,15.87,2.2,5.86,7.57,9.52,13.92,9.03l29.79-1.46c5.62,11.72,11.72,22.95,18.8,32.96l-15.87,25.39c-3.42,5.62-2.93,11.72,1.22,16.36,4.64,5.37,10.25,7.08,16.36,4.15l27.1-11.23c9.03,9.03,19.29,17.09,29.3,24.17l-6.1,29.05c-1.22,6.59.98,12.21,6.35,15.38,6.1,3.17,11.96,2.44,16.6-1.95l21.97-19.77c11.72,4.88,23.44,9.52,35.64,12.94l4.39,29.54c.73,6.35,5.13,10.99,11.23,12.21,6.59.73,11.72-1.95,14.65-7.57l14.16-26.61c6.35.49,12.45.98,19.04.98Zm-42.72-277.83l27.1-17.09-82.76-141.6-28.08,15.87,83.74,142.82Zm99.37,55.66h164.8l-.24-31.49h-164.55v31.49Zm-72.02,42.24l-26.85-17.58-86.67,141.85,27.83,16.36,85.69-140.62Zm14.89,6.59c35.16,0,63.72-28.56,63.72-63.96s-28.57-63.96-63.72-63.96-63.96,28.57-63.96,63.96,28.57,63.96,63.96,63.96Zm0-34.42c-16.85,0-29.54-12.94-29.54-29.54s12.69-29.54,29.54-29.54,29.3,12.94,29.3,29.54-12.7,29.54-29.3,29.54Z"/>
    <path class="cls-1" d="m429.2,170.35c46.14,0,84.47-38.09,84.47-84.47S475.34,1.16,429.2,1.16s-84.72,38.09-84.72,84.72,38.09,84.47,84.72,84.47Z"/>
  </g>
</svg>