<?xml version="1.0" encoding="UTF-8"?>
<svg id="Layer_2" data-name="Layer 2" xmlns="http://www.w3.org/2000/svg" viewBox="0 0 770.06 304.36">
  <defs>
    <style>
      .cls-1 {
        fill: #007aff;
      }
    </style>
  </defs>
  <g id="Layer_1-2" data-name="Layer 1">
    <path class="cls-1" d="m199.33,304.36c83.89,0,152.05-68.11,152.05-152.31S283.22,0,199.33,0,46.91,68.11,46.91,152.05s68.21,152.31,152.42,152.31Zm0-41.03c-61.36,0-111.34-49.67-111.34-111.28s49.98-111.02,111.34-111.02,111.03,49.93,111.03,111.02-49.93,111.28-111.03,111.28Zm371.66,41.03c83.94,0,152.42-68.11,152.42-152.31S654.93,0,570.99,0s-152.31,68.11-152.31,152.05,68.16,152.31,152.31,152.31Zm0-41.03c-61.36,0-111.28-49.93-111.28-111.28s49.93-111.02,111.28-111.02,111.08,49.67,111.08,111.02-49.72,111.28-111.08,111.28ZM62.98,121.92H18.31c-11.93,0-18.31,6.32-18.31,18.46v9.95c0,12.08,6.38,18.61,18.31,18.61h44.67v-47.02Zm644.11,47.02h44.67c12.19,0,18.31-6.53,18.31-18.61v-9.95c0-12.14-6.12-18.46-18.31-18.46h-44.67v47.02Zm-367.77-8.11c12.52-7.43,29.5-11.37,45.85-11.37s33.07,3.94,45.59,11.37v-44.12c-13.76-6.6-31.83-9.14-45.59-9.14s-31.83,2.54-45.85,9.14v44.12Z"/>
  </g>
</svg>