<?xml version="1.0" encoding="utf-8"?>
<svg version="1.1" id="Layer_2_00000052789476830345554590000014407545644599723665_"
	 xmlns="http://www.w3.org/2000/svg" xmlns:xlink="http://www.w3.org/1999/xlink" x="0px" y="0px" viewBox="0 0 498 498.3"
	 style="enable-background:new 0 0 498 498.3; fill: #d0e37f; stroke: #d0e37f;" xml:space="preserve">
<g id="Layer_1-2">
	<g>
		<path d="M249,498c136.2,0,249-113,249-249S385,0,248.8,0S0,112.8,0,249S113,498,249,498L249,498z M249,456.5
			c-115.2,0-207.3-92.3-207.3-207.5s91.8-207.5,207-207.5S456.5,133.8,456.5,249S364.2,456.5,249,456.5L249,456.5z M325.2,309.6
			c10.7,0,18.1-8.3,18.1-19.5V174.8c0-14.4-8.1-20-20.5-20H207c-11.5,0-18.8,7.1-18.8,17.8s7.6,17.8,19.3,17.8h44.4l36.1-3.9
			L250,221.9L159.9,312c-3.4,3.4-5.9,8.3-5.9,13.2c0,11,7.3,18.1,18.1,18.1c5.9,0,10.2-2.2,13.9-5.6l89.8-89.8l35.2-37.6l-3.7,38.1
			v42.2C307.4,302,314.4,309.6,325.2,309.6L325.2,309.6z"/>
	</g>
</g>
</svg>
