<?xml version="1.0" encoding="utf-8"?>
<!-- Generator: Adobe Illustrator 21.0.0, SVG Export Plug-In . SVG Version: 6.00 Build 0)  -->
<svg version="1.1" id="Isolation_Mode" xmlns="http://www.w3.org/2000/svg" xmlns:xlink="http://www.w3.org/1999/xlink" x="0px"
	 y="0px" viewBox="0 0 300 300" style="enable-background:new 0 0 300 300;" xml:space="preserve">
<style type="text/css">
	.st0{fill-rule:evenodd;clip-rule:evenodd;fill:#F6921E;}
	.st1{fill:#231F20;}
</style>
<path class="st0" d="M0,150C0,67.2,67.2,0,150,0s150,67.2,150,150c0,82.8-67.2,150-150,150S0,232.8,0,150"/>
<path class="st1" d="M33.6,125.9c2.7-7.6,6.5-14.2,11.5-19.9c5-5.7,11.1-10.1,18.4-13.3c7.3-3.2,15.4-4.8,24.5-4.8
	c9.2,0,17.4,1.6,24.6,4.8c7.2,3.2,13.3,7.7,18.3,13.3c5,5.7,8.8,12.3,11.5,19.9c2.7,7.6,4,15.8,4,24.7c0,8.6-1.3,16.7-4,24.2
	c-2.7,7.5-6.5,14-11.5,19.5c-5,5.5-11.1,9.9-18.3,13.1c-7.2,3.2-15.4,4.7-24.6,4.7c-9.1,0-17.3-1.6-24.5-4.7
	c-7.3-3.2-13.4-7.5-18.4-13.1c-5-5.5-8.8-12.1-11.5-19.5c-2.7-7.5-4-15.5-4-24.2C29.6,141.7,30.9,133.5,33.6,125.9 M57.5,165.1
	c1.2,4.7,3,9,5.6,12.7c2.5,3.8,5.9,6.8,10,9.1c4.1,2.3,9.1,3.4,15,3.4c5.9,0,10.9-1.1,15-3.4c4.1-2.3,7.4-5.3,10-9.1
	c2.5-3.8,4.4-8,5.6-12.7c1.2-4.7,1.7-9.6,1.7-14.6c0-5.2-0.6-10.3-1.7-15.1c-1.2-4.9-3-9.2-5.6-13.1c-2.5-3.8-5.9-6.9-10-9.1
	c-4.1-2.3-9.1-3.4-15-3.4c-5.9,0-10.9,1.1-15,3.4c-4.1,2.3-7.4,5.3-10,9.1c-2.6,3.8-4.4,8.2-5.6,13.1c-1.2,4.9-1.7,9.9-1.7,15.1
	C55.7,155.6,56.3,160.4,57.5,165.1"/>
<path class="st1" d="M224.4,90.7c5.3,0,10.1,0.9,14.4,2.6c4.3,1.7,7.9,4.1,11,7.1c3,3,5.4,6.5,7,10.4c1.6,3.9,2.4,8.2,2.4,12.7
	c0,7-1.5,13-4.4,18.1c-2.9,5.1-7.7,9-14.4,11.6v0.3c3.2,0.9,5.9,2.2,8,4.1c2.1,1.8,3.8,4,5.2,6.5c1.3,2.5,2.3,5.2,2.9,8.2
	c0.6,3,1,6,1.2,9c0.1,1.9,0.2,4.1,0.3,6.7c0.1,2.6,0.3,5.2,0.6,7.8c0.3,2.7,0.7,5.2,1.3,7.6c0.6,2.4,1.5,4.4,2.7,6.1h-26.1
	c-1.4-3.8-2.3-8.3-2.7-13.5c-0.3-5.2-0.8-10.2-1.5-15c-0.9-6.2-2.8-10.8-5.7-13.6c-2.9-2.9-7.6-4.3-14.1-4.3h-26.1v46.4h-26.1V90.7
	H224.4z M215,144.4c6,0,10.5-1.3,13.5-4c3-2.7,4.5-7,4.5-13c0-5.8-1.5-9.9-4.5-12.6c-3-2.6-7.5-3.9-13.5-3.9h-28.6v33.4H215z"/>
</svg>
