<?xml version="1.0" encoding="utf-8"?>
<!-- Generator: Adobe Illustrator 21.0.0, SVG Export Plug-In . SVG Version: 6.00 Build 0)  -->
<svg version="1.1" id="Isolation_Mode" xmlns="http://www.w3.org/2000/svg" xmlns:xlink="http://www.w3.org/1999/xlink" x="0px"
	 y="0px" viewBox="0 0 300 300" style="enable-background:new 0 0 300 300;" xml:space="preserve">
<style type="text/css">
	.st0{fill-rule:evenodd;clip-rule:evenodd;fill:#DF2935;} /* #E21936 */ 
	.st1{fill:#FFFFFF;}
</style>
<path class="st0" d="M0,150C0,67.2,67.2,0,150,0s150,67.2,150,150c0,82.8-67.2,150-150,150S0,232.8,0,150"/>
<path class="st1" d="M105.2,90.6c5.3,0,10.1,0.9,14.4,2.6c4.3,1.7,7.9,4.1,11,7.1c3,3,5.4,6.5,7,10.4c1.6,3.9,2.4,8.2,2.4,12.7
	c0,7-1.5,13-4.4,18.1c-2.9,5.1-7.7,9-14.4,11.6v0.3c3.2,0.9,5.9,2.2,8,4.1c2.1,1.8,3.8,4,5.2,6.5c1.3,2.5,2.3,5.2,2.9,8.2
	c0.6,3,1,6,1.2,9c0.1,1.9,0.2,4.1,0.3,6.7c0.1,2.6,0.3,5.2,0.6,7.8c0.3,2.7,0.7,5.2,1.3,7.6c0.6,2.4,1.5,4.4,2.7,6.1h-26.1
	c-1.4-3.8-2.3-8.3-2.7-13.5c-0.3-5.2-0.8-10.2-1.5-15c-0.9-6.2-2.8-10.8-5.7-13.6c-2.9-2.9-7.6-4.3-14.1-4.3H67.3v46.4H41.2V90.6
	H105.2z M95.9,144.3c6,0,10.5-1.3,13.5-4c3-2.7,4.5-7,4.5-13c0-5.8-1.5-10-4.5-12.6c-3-2.6-7.5-3.9-13.5-3.9H67.3v33.4H95.9z"/>
<path class="st1" d="M212.5,90.6c7.6,0,14.8,1.2,21.4,3.7c6.6,2.4,12.3,6.1,17.1,11c4.8,4.9,8.6,11,11.3,18.3
	c2.7,7.3,4.1,15.9,4.1,25.8c0,8.6-1.1,16.6-3.3,23.9c-2.2,7.3-5.6,13.6-10.1,19c-4.5,5.3-10.1,9.5-16.8,12.6
	c-6.7,3-14.6,4.6-23.7,4.6h-51.2V90.6H212.5z M210.7,187.4c3.8,0,7.4-0.6,11-1.8c3.5-1.2,6.7-3.3,9.5-6.1c2.8-2.8,5-6.5,6.7-11.1
	c1.7-4.5,2.5-10.1,2.5-16.6c0-6-0.6-11.4-1.7-16.2c-1.2-4.8-3.1-9-5.7-12.4c-2.7-3.4-6.2-6.1-10.6-7.9c-4.4-1.8-9.8-2.7-16.2-2.7
	h-18.6v74.8H210.7z"/>
</svg>
