<svg width="40" height="40" viewBox="0 0 40 40" fill="none" xmlns="http://www.w3.org/2000/svg">
<path d="M28.5068 15.8542C28.1852 16.1861 27.8058 16.35 27.3 16.35C26.8402 16.35 26.4589 16.1947 26.1071 15.8429C25.7553 15.4911 25.6 15.1098 25.6 14.65C25.6 14.1442 25.7639 13.7648 26.0958 13.4432C26.4452 13.1047 26.83 12.95 27.3 12.95C27.816 12.95 28.1988 13.113 28.5179 13.4321C28.837 13.7512 29 14.134 29 14.65C29 15.12 28.8453 15.5048 28.5068 15.8542ZM13.9068 15.8542C13.5852 16.1861 13.2058 16.35 12.7 16.35C12.2402 16.35 11.8589 16.1947 11.5071 15.8429C11.1553 15.4911 11 15.1098 11 14.65C11 14.1442 11.1639 13.7648 11.4958 13.4432C11.8452 13.1047 12.23 12.95 12.7 12.95C13.216 12.95 13.5988 13.113 13.9179 13.4321C14.237 13.7512 14.4 14.134 14.4 14.65C14.4 15.12 14.2453 15.5048 13.9068 15.8542ZM14.4918 25.8488C16.1395 24.7151 17.9663 24.15 20 24.15C22.0368 24.15 23.8754 24.7086 25.5418 25.8297C26.7856 26.6665 27.7741 27.7195 28.5116 29H28.0662C27.2498 27.7222 26.188 26.69 24.8863 25.9156C23.4113 25.0381 21.7924 24.6 20.05 24.6C18.2824 24.6 16.6428 25.0256 15.1515 25.8831C13.8249 26.6459 12.7611 27.6901 11.9665 29H11.521C12.2737 27.7421 13.2626 26.6947 14.4918 25.8488ZM20 39C17.3635 39 14.8989 38.5005 12.5962 37.5068C10.2741 36.5048 8.26408 35.1499 6.55711 33.4429C4.85014 31.7359 3.49519 29.7259 2.49317 27.4038C1.49952 25.1011 1 22.6365 1 20C1 17.3635 1.49952 14.8989 2.49317 12.5962C3.49519 10.2741 4.85014 8.26408 6.55711 6.55711C8.26408 4.85014 10.2741 3.49519 12.5962 2.49317C14.8989 1.49952 17.3635 1 20 1C22.6365 1 25.1011 1.49952 27.4038 2.49317C29.7259 3.49519 31.7359 4.85014 33.4429 6.55711C35.1499 8.26408 36.5048 10.2741 37.5068 12.5962C38.5005 14.8989 39 17.3635 39 20C39 22.6365 38.5005 25.1011 37.5068 27.4038C36.5048 29.7259 35.1499 31.7359 33.4429 33.4429C31.7359 35.1499 29.7259 36.5048 27.4038 37.5068C25.1011 38.5005 22.6365 39 20 39ZM20 38C24.9943 38 29.2666 36.2476 32.7571 32.7571C36.2476 29.2666 38 24.9943 38 20C38 15.0057 36.2476 10.7334 32.7571 7.24289C29.2666 3.75238 24.9943 2 20 2C15.0057 2 10.7334 3.75238 7.24289 7.24289C3.75238 10.7334 2 15.0057 2 20C2 24.9943 3.75238 29.2666 7.24289 32.7571C10.7334 36.2476 15.0057 38 20 38Z" fill="white" stroke="white" stroke-width="2"/>
</svg>
