<?xml version="1.0" encoding="utf-8"?>
<!-- Generator: Adobe Illustrator 21.0.0, SVG Export Plug-In . SVG Version: 6.00 Build 0)  -->
<svg version="1.1" id="Isolation_Mode" xmlns="http://www.w3.org/2000/svg" xmlns:xlink="http://www.w3.org/1999/xlink" x="0px"
	 y="0px" viewBox="0 0 300 300" style="enable-background:new 0 0 300 300;" xml:space="preserve">
<style type="text/css">
	.st0{fill-rule:evenodd;clip-rule:evenodd;fill:#A1A2A1;}
	.st1{fill:#231F20;}
</style>
<path class="st0" d="M0,150C0,67.1,67.2,0,150,0s150,67.1,150,150c0,82.8-67.1,150-150,150S0,232.8,0,150"/>
<path class="st1" d="M76.2,180.2c1.4,2.8,3.3,5,5.7,6.7c2.4,1.7,5.2,3,8.4,3.8c3.2,0.8,6.5,1.3,10,1.3c2.3,0,4.8-0.2,7.5-0.6
	c2.7-0.4,5.2-1.1,7.5-2.2c2.3-1.1,4.3-2.6,5.8-4.6c1.5-1.9,2.3-4.4,2.3-7.4c0-3.2-1-5.8-3.1-7.8c-2.1-2-4.7-3.7-8.1-5
	c-3.3-1.3-7.1-2.5-11.3-3.5c-4.2-1-8.5-2.1-12.8-3.3c-4.4-1.1-8.8-2.5-13-4.1c-4.2-1.6-8-3.7-11.3-6.2c-3.3-2.6-6-5.7-8.1-9.6
	c-2.1-3.8-3.1-8.5-3.1-13.9c0-6.1,1.3-11.4,3.9-15.9c2.6-4.5,6-8.2,10.2-11.2c4.2-3,9-5.2,14.3-6.6c5.3-1.4,10.6-2.2,16-2.2
	c6.2,0,12.2,0.7,17.9,2.1c5.7,1.4,10.8,3.6,15.2,6.7c4.4,3.1,8,7.1,10.6,11.9c2.6,4.8,3.9,10.7,3.9,17.5h-25.3
	c-0.2-3.5-1-6.5-2.2-8.8c-1.3-2.3-3-4.2-5.1-5.5c-2.1-1.3-4.5-2.3-7.2-2.8c-2.7-0.6-5.7-0.8-8.9-0.8c-2.1,0-4.2,0.2-6.3,0.7
	c-2.1,0.4-4,1.2-5.7,2.3c-1.7,1.1-3.1,2.5-4.2,4.2c-1.1,1.7-1.7,3.8-1.7,6.3c0,2.3,0.4,4.2,1.3,5.7c0.9,1.4,2.6,2.8,5.2,4
	c2.6,1.2,6.2,2.4,10.8,3.7c4.6,1.2,10.6,2.8,18,4.6c2.2,0.5,5.3,1.3,9.2,2.4c3.9,1.2,7.8,3,11.7,5.6c3.9,2.6,7.2,6,10.1,10.2
	c2.8,4.3,4.2,9.7,4.2,16.4c0,5.4-1.1,10.5-3.2,15.1c-2.1,4.7-5.2,8.7-9.4,12.1c-4.2,3.4-9.3,6-15.5,7.9c-6.2,1.9-13.3,2.8-21.4,2.8
	c-6.5,0-12.9-0.8-19-2.4c-6.2-1.6-11.6-4.1-16.3-7.6c-4.7-3.4-8.5-7.8-11.2-13.1c-2.8-5.3-4.1-11.6-4-19H74
	C74,174,74.8,177.4,76.2,180.2"/>
<polygon class="st1" points="190,209.4 151.5,90.7 178.3,90.7 204.8,174.2 205.1,174.2 231.9,90.7 258.8,90.7 219.4,209.4 "/>
</svg>
