<?xml version="1.0" encoding="UTF-8"?>
<svg id="Layer_2" data-name="Layer 2" xmlns="http://www.w3.org/2000/svg" viewBox="0 0 449.95 510.01">
  <defs>
    <style>
      .cls-1 {
        fill: rgb(242, 242, 242);
      }
    </style>
  </defs>
  <g id="Layer_1-2" data-name="Layer 1">
    <path class="cls-1" d="m19.29,311.77c11.47,0,20.02-8.79,20.02-19.78v-73.97c0-10.99-8.54-20.02-20.02-20.02S0,207.03,0,218.02v73.97c0,10.99,8.3,19.78,19.29,19.78Zm82.27,99.85c11.23,0,19.78-8.79,19.78-19.77V118.16c0-10.99-8.54-20.02-19.78-20.02s-19.53,9.03-19.53,20.02v273.68c0,10.99,8.55,19.77,19.53,19.77Zm82.03,98.39c11.23,0,20.02-8.79,20.02-19.78V19.78c0-10.99-8.79-19.78-20.02-19.78s-19.29,8.79-19.29,19.78v470.46c0,10.99,8.3,19.78,19.29,19.78Zm82.27-128.17c11.23,0,19.78-8.55,19.78-19.53v-214.6c0-10.99-8.54-19.78-19.78-19.78s-19.53,8.79-19.53,19.78v214.6c0,10.99,8.3,19.53,19.53,19.53Zm82.28,73.98c10.99,0,19.53-8.79,19.53-19.53V73.73c0-10.74-8.54-19.78-19.53-19.78s-19.78,9.03-19.78,19.78v362.55c0,10.74,8.3,19.53,19.78,19.53Zm82.03-123.05c10.99,0,19.77-8.79,19.77-19.53v-116.46c0-10.74-8.79-19.77-19.77-19.77s-19.53,9.03-19.53,19.77v116.46c0,10.74,8.3,19.53,19.53,19.53Z"/>
  </g>
</svg>